<mxfile host="app.diagrams.net" modified="2023-08-23T02:50:50.550Z" agent="Mozilla/5.0 (Windows NT 10.0; Win64; x64) AppleWebKit/537.36 (KHTML, like Gecko) Chrome/116.0.0.0 Safari/537.36" etag="ptjh9nR0GrxCLgXjvxnI" version="21.6.9" type="github">
  <diagram name="第 1 页" id="llBJAiLOP4dLcoEB8pB5">
    <mxGraphModel dx="1014" dy="525" grid="1" gridSize="10" guides="1" tooltips="1" connect="1" arrows="1" fold="1" page="1" pageScale="1" pageWidth="827" pageHeight="1169" math="0" shadow="0">
      <root>
        <mxCell id="0" />
        <mxCell id="1" parent="0" />
        <mxCell id="0aJHia8VfT2WHMthW83p-2" value="&lt;font style=&quot;font-size: 16px;&quot;&gt;t_oms_order_info&lt;br style=&quot;border-color: var(--border-color);&quot;&gt;t_oms_shipped_order_info&lt;/font&gt;" style="rounded=0;whiteSpace=wrap;html=1;" parent="1" vertex="1">
          <mxGeometry x="50" y="220" width="210" height="120" as="geometry" />
        </mxCell>
        <mxCell id="0aJHia8VfT2WHMthW83p-3" value="" style="whiteSpace=wrap;html=1;aspect=fixed;" parent="1" vertex="1">
          <mxGeometry x="690" y="430" width="130" height="130" as="geometry" />
        </mxCell>
        <mxCell id="0aJHia8VfT2WHMthW83p-6" style="edgeStyle=orthogonalEdgeStyle;rounded=0;orthogonalLoop=1;jettySize=auto;html=1;entryX=1;entryY=0.5;entryDx=0;entryDy=0;" parent="1" source="0aJHia8VfT2WHMthW83p-5" target="0aJHia8VfT2WHMthW83p-2" edge="1">
          <mxGeometry relative="1" as="geometry" />
        </mxCell>
        <mxCell id="0aJHia8VfT2WHMthW83p-16" style="edgeStyle=orthogonalEdgeStyle;rounded=0;orthogonalLoop=1;jettySize=auto;html=1;entryX=0.5;entryY=0;entryDx=0;entryDy=0;" parent="1" source="0aJHia8VfT2WHMthW83p-5" target="0aJHia8VfT2WHMthW83p-10" edge="1">
          <mxGeometry relative="1" as="geometry" />
        </mxCell>
        <mxCell id="0aJHia8VfT2WHMthW83p-5" value="&lt;font style=&quot;font-size: 18px;&quot;&gt;OMS App&lt;/font&gt;" style="rounded=0;whiteSpace=wrap;html=1;" parent="1" vertex="1">
          <mxGeometry x="410" y="250" width="120" height="60" as="geometry" />
        </mxCell>
        <mxCell id="0aJHia8VfT2WHMthW83p-7" value="&lt;b&gt;&lt;font style=&quot;font-size: 18px;&quot;&gt;MYSQL&lt;/font&gt;&lt;/b&gt;" style="text;html=1;strokeColor=none;fillColor=none;align=center;verticalAlign=middle;whiteSpace=wrap;rounded=0;" parent="1" vertex="1">
          <mxGeometry x="60" y="230" width="60" height="30" as="geometry" />
        </mxCell>
        <mxCell id="0aJHia8VfT2WHMthW83p-8" value="&lt;font style=&quot;font-size: 14px;&quot;&gt;监听 bin log&lt;/font&gt;" style="text;html=1;strokeColor=none;fillColor=none;align=center;verticalAlign=middle;whiteSpace=wrap;rounded=0;" parent="1" vertex="1">
          <mxGeometry x="300" y="240" width="80" height="30" as="geometry" />
        </mxCell>
        <mxCell id="0aJHia8VfT2WHMthW83p-33" style="edgeStyle=orthogonalEdgeStyle;rounded=0;orthogonalLoop=1;jettySize=auto;html=1;entryX=0.5;entryY=0;entryDx=0;entryDy=0;exitX=0.5;exitY=1;exitDx=0;exitDy=0;" parent="1" source="0aJHia8VfT2WHMthW83p-10" target="0aJHia8VfT2WHMthW83p-30" edge="1">
          <mxGeometry relative="1" as="geometry" />
        </mxCell>
        <mxCell id="0aJHia8VfT2WHMthW83p-34" style="edgeStyle=orthogonalEdgeStyle;rounded=0;orthogonalLoop=1;jettySize=auto;html=1;entryX=0.5;entryY=0;entryDx=0;entryDy=0;" parent="1" source="0aJHia8VfT2WHMthW83p-10" target="0aJHia8VfT2WHMthW83p-3" edge="1">
          <mxGeometry relative="1" as="geometry" />
        </mxCell>
        <mxCell id="0aJHia8VfT2WHMthW83p-10" value="&lt;font style=&quot;font-size: 14px;&quot;&gt;数据清洗，&lt;br&gt;宽表转小表行数不变&lt;br&gt;&lt;/font&gt;" style="rounded=1;whiteSpace=wrap;html=1;" parent="1" vertex="1">
          <mxGeometry x="600" y="310" width="140" height="60" as="geometry" />
        </mxCell>
        <mxCell id="0aJHia8VfT2WHMthW83p-13" value="&lt;b&gt;&lt;font style=&quot;font-size: 18px;&quot;&gt;MYSQL&lt;/font&gt;&lt;/b&gt;" style="text;html=1;strokeColor=none;fillColor=none;align=center;verticalAlign=middle;whiteSpace=wrap;rounded=0;" parent="1" vertex="1">
          <mxGeometry x="692.5" y="440" width="60" height="30" as="geometry" />
        </mxCell>
        <mxCell id="0aJHia8VfT2WHMthW83p-14" value="&lt;font style=&quot;font-size: 18px;&quot;&gt;店铺销售表&lt;/font&gt;" style="text;html=1;strokeColor=none;fillColor=none;align=center;verticalAlign=middle;whiteSpace=wrap;rounded=0;" parent="1" vertex="1">
          <mxGeometry x="697.5" y="490" width="110" height="30" as="geometry" />
        </mxCell>
        <mxCell id="0aJHia8VfT2WHMthW83p-17" value="" style="rounded=0;whiteSpace=wrap;html=1;" parent="1" vertex="1">
          <mxGeometry x="80" y="940" width="210" height="120" as="geometry" />
        </mxCell>
        <mxCell id="0aJHia8VfT2WHMthW83p-18" value="" style="whiteSpace=wrap;html=1;aspect=fixed;" parent="1" vertex="1">
          <mxGeometry x="690" y="1150" width="130" height="130" as="geometry" />
        </mxCell>
        <mxCell id="0aJHia8VfT2WHMthW83p-19" style="edgeStyle=orthogonalEdgeStyle;rounded=0;orthogonalLoop=1;jettySize=auto;html=1;entryX=1;entryY=0.5;entryDx=0;entryDy=0;" parent="1" source="0aJHia8VfT2WHMthW83p-21" target="0aJHia8VfT2WHMthW83p-17" edge="1">
          <mxGeometry relative="1" as="geometry" />
        </mxCell>
        <mxCell id="0aJHia8VfT2WHMthW83p-20" style="edgeStyle=orthogonalEdgeStyle;rounded=0;orthogonalLoop=1;jettySize=auto;html=1;entryX=0.5;entryY=0;entryDx=0;entryDy=0;" parent="1" source="0aJHia8VfT2WHMthW83p-21" target="0aJHia8VfT2WHMthW83p-25" edge="1">
          <mxGeometry relative="1" as="geometry" />
        </mxCell>
        <mxCell id="0aJHia8VfT2WHMthW83p-21" value="&lt;font style=&quot;font-size: 18px;&quot;&gt;OMS App&lt;/font&gt;" style="rounded=0;whiteSpace=wrap;html=1;" parent="1" vertex="1">
          <mxGeometry x="440" y="970" width="120" height="60" as="geometry" />
        </mxCell>
        <mxCell id="0aJHia8VfT2WHMthW83p-22" value="&lt;b&gt;&lt;font style=&quot;font-size: 18px;&quot;&gt;MYSQL&lt;/font&gt;&lt;/b&gt;" style="text;html=1;strokeColor=none;fillColor=none;align=center;verticalAlign=middle;whiteSpace=wrap;rounded=0;" parent="1" vertex="1">
          <mxGeometry x="90" y="950" width="60" height="30" as="geometry" />
        </mxCell>
        <mxCell id="0aJHia8VfT2WHMthW83p-23" value="&lt;font style=&quot;font-size: 14px;&quot;&gt;监听 bin log&lt;/font&gt;" style="text;html=1;strokeColor=none;fillColor=none;align=center;verticalAlign=middle;whiteSpace=wrap;rounded=0;" parent="1" vertex="1">
          <mxGeometry x="330" y="960" width="80" height="30" as="geometry" />
        </mxCell>
        <mxCell id="0aJHia8VfT2WHMthW83p-38" style="edgeStyle=orthogonalEdgeStyle;rounded=0;orthogonalLoop=1;jettySize=auto;html=1;entryX=0.5;entryY=0;entryDx=0;entryDy=0;" parent="1" source="0aJHia8VfT2WHMthW83p-25" target="0aJHia8VfT2WHMthW83p-35" edge="1">
          <mxGeometry relative="1" as="geometry" />
        </mxCell>
        <mxCell id="0aJHia8VfT2WHMthW83p-39" style="edgeStyle=orthogonalEdgeStyle;rounded=0;orthogonalLoop=1;jettySize=auto;html=1;" parent="1" source="0aJHia8VfT2WHMthW83p-25" target="0aJHia8VfT2WHMthW83p-18" edge="1">
          <mxGeometry relative="1" as="geometry" />
        </mxCell>
        <mxCell id="0aJHia8VfT2WHMthW83p-25" value="&lt;font style=&quot;font-size: 14px;&quot;&gt;数据清洗，&lt;br&gt;宽表转小表行数不变&lt;br&gt;&lt;/font&gt;" style="rounded=1;whiteSpace=wrap;html=1;" parent="1" vertex="1">
          <mxGeometry x="630" y="1030" width="140" height="60" as="geometry" />
        </mxCell>
        <mxCell id="0aJHia8VfT2WHMthW83p-26" value="&lt;b&gt;&lt;font style=&quot;font-size: 18px;&quot;&gt;MYSQL&lt;/font&gt;&lt;/b&gt;" style="text;html=1;strokeColor=none;fillColor=none;align=center;verticalAlign=middle;whiteSpace=wrap;rounded=0;" parent="1" vertex="1">
          <mxGeometry x="692.5" y="1160" width="60" height="30" as="geometry" />
        </mxCell>
        <mxCell id="0aJHia8VfT2WHMthW83p-27" value="&lt;font style=&quot;font-size: 18px;&quot;&gt;产品销售表&lt;/font&gt;" style="text;html=1;strokeColor=none;fillColor=none;align=center;verticalAlign=middle;whiteSpace=wrap;rounded=0;" parent="1" vertex="1">
          <mxGeometry x="697.5" y="1210" width="110" height="30" as="geometry" />
        </mxCell>
        <mxCell id="0aJHia8VfT2WHMthW83p-28" value="&lt;font style=&quot;font-size: 14px;&quot;&gt;t_oms_shipped_order_details&lt;/font&gt;" style="text;html=1;strokeColor=none;fillColor=none;align=center;verticalAlign=middle;whiteSpace=wrap;rounded=0;" parent="1" vertex="1">
          <mxGeometry x="100" y="1020" width="170" height="30" as="geometry" />
        </mxCell>
        <mxCell id="0aJHia8VfT2WHMthW83p-29" value="&lt;font style=&quot;font-size: 14px;&quot;&gt;t_oms_order_details&lt;/font&gt;" style="text;html=1;strokeColor=none;fillColor=none;align=center;verticalAlign=middle;whiteSpace=wrap;rounded=0;" parent="1" vertex="1">
          <mxGeometry x="100" y="990" width="170" height="30" as="geometry" />
        </mxCell>
        <mxCell id="0aJHia8VfT2WHMthW83p-30" value="" style="whiteSpace=wrap;html=1;aspect=fixed;" parent="1" vertex="1">
          <mxGeometry x="470" y="430" width="130" height="130" as="geometry" />
        </mxCell>
        <mxCell id="0aJHia8VfT2WHMthW83p-31" value="&lt;b&gt;&lt;font style=&quot;font-size: 18px;&quot;&gt;StarRocks&lt;/font&gt;&lt;/b&gt;" style="text;html=1;strokeColor=none;fillColor=none;align=center;verticalAlign=middle;whiteSpace=wrap;rounded=0;" parent="1" vertex="1">
          <mxGeometry x="475" y="440" width="100" height="30" as="geometry" />
        </mxCell>
        <mxCell id="0aJHia8VfT2WHMthW83p-32" value="&lt;font style=&quot;font-size: 18px;&quot;&gt;店铺销售表&lt;/font&gt;" style="text;html=1;strokeColor=none;fillColor=none;align=center;verticalAlign=middle;whiteSpace=wrap;rounded=0;" parent="1" vertex="1">
          <mxGeometry x="480" y="490" width="110" height="30" as="geometry" />
        </mxCell>
        <mxCell id="0aJHia8VfT2WHMthW83p-35" value="" style="whiteSpace=wrap;html=1;aspect=fixed;" parent="1" vertex="1">
          <mxGeometry x="515" y="1150" width="130" height="130" as="geometry" />
        </mxCell>
        <mxCell id="0aJHia8VfT2WHMthW83p-36" value="&lt;b&gt;&lt;font style=&quot;font-size: 18px;&quot;&gt;StarRocks&lt;/font&gt;&lt;/b&gt;" style="text;html=1;strokeColor=none;fillColor=none;align=center;verticalAlign=middle;whiteSpace=wrap;rounded=0;" parent="1" vertex="1">
          <mxGeometry x="530" y="1160" width="100" height="30" as="geometry" />
        </mxCell>
        <mxCell id="0aJHia8VfT2WHMthW83p-37" value="&lt;font style=&quot;font-size: 18px;&quot;&gt;产品销售表&lt;/font&gt;" style="text;html=1;strokeColor=none;fillColor=none;align=center;verticalAlign=middle;whiteSpace=wrap;rounded=0;" parent="1" vertex="1">
          <mxGeometry x="530" y="1210" width="110" height="30" as="geometry" />
        </mxCell>
        <mxCell id="jtDmkA4JkcW0T5kZdluj-4" style="edgeStyle=orthogonalEdgeStyle;rounded=0;orthogonalLoop=1;jettySize=auto;html=1;entryX=0.5;entryY=1;entryDx=0;entryDy=0;" edge="1" parent="1" source="jtDmkA4JkcW0T5kZdluj-1" target="0aJHia8VfT2WHMthW83p-30">
          <mxGeometry relative="1" as="geometry" />
        </mxCell>
        <mxCell id="jtDmkA4JkcW0T5kZdluj-6" value="" style="edgeStyle=orthogonalEdgeStyle;orthogonalLoop=1;jettySize=auto;html=1;curved=1;" edge="1" parent="1" source="jtDmkA4JkcW0T5kZdluj-1" target="jtDmkA4JkcW0T5kZdluj-5">
          <mxGeometry relative="1" as="geometry" />
        </mxCell>
        <mxCell id="jtDmkA4JkcW0T5kZdluj-1" value="&lt;font style=&quot;font-size: 18px;&quot;&gt;SQL-Routing&lt;/font&gt;" style="rounded=1;whiteSpace=wrap;html=1;" vertex="1" parent="1">
          <mxGeometry x="475" y="590" width="120" height="60" as="geometry" />
        </mxCell>
        <mxCell id="jtDmkA4JkcW0T5kZdluj-3" style="edgeStyle=orthogonalEdgeStyle;rounded=0;orthogonalLoop=1;jettySize=auto;html=1;entryX=0.5;entryY=1;entryDx=0;entryDy=0;" edge="1" parent="1" source="jtDmkA4JkcW0T5kZdluj-2" target="jtDmkA4JkcW0T5kZdluj-1">
          <mxGeometry relative="1" as="geometry" />
        </mxCell>
        <mxCell id="jtDmkA4JkcW0T5kZdluj-2" value="&lt;font style=&quot;font-size: 18px;&quot;&gt;报表数据查询&lt;/font&gt;" style="rounded=0;whiteSpace=wrap;html=1;" vertex="1" parent="1">
          <mxGeometry x="475" y="680" width="120" height="60" as="geometry" />
        </mxCell>
        <mxCell id="jtDmkA4JkcW0T5kZdluj-5" value="&lt;font style=&quot;font-size: 14px;&quot;&gt;如果采用 startrocks 方案，可以在 SQL-Routing 层面多配置一个数据源，报表查询的请求指定路由到 starrocks 去执行即可。&lt;/font&gt;" style="shape=document;whiteSpace=wrap;html=1;boundedLbl=1;rounded=1;size=0.16666666666666666;" vertex="1" parent="1">
          <mxGeometry x="190" y="580" width="190" height="120" as="geometry" />
        </mxCell>
      </root>
    </mxGraphModel>
  </diagram>
</mxfile>
